<svg xmlns="http://www.w3.org/2000/svg" width="1440" height="960" viewBox="0 0 1440 960" fill="none">
  <defs>
    <linearGradient id="bg-gradient" x1="0" y1="0" x2="1440" y2="960" gradientUnits="userSpaceOnUse">
      <stop stop-color="#0f172a"/>
      <stop offset="0.48" stop-color="#111c33"/>
      <stop offset="1" stop-color="#050a16"/>
    </linearGradient>
    <linearGradient id="orb-warm" x1="120" y1="120" x2="320" y2="320" gradientUnits="userSpaceOnUse">
      <stop stop-color="#ff8a00"/>
      <stop offset="1" stop-color="#ff3d81"/>
    </linearGradient>
    <linearGradient id="orb-cool" x1="-40" y1="-40" x2="260" y2="260" gradientUnits="userSpaceOnUse">
      <stop stop-color="#7a5cff"/>
      <stop offset="1" stop-color="#4b8dff" stop-opacity="0.9"/>
    </linearGradient>
    <linearGradient id="route" x1="0" y1="0" x2="100" y2="160" gradientUnits="userSpaceOnUse">
      <stop stop-color="#ff8a00" stop-opacity="0.4"/>
      <stop offset="1" stop-color="#ff3d81" stop-opacity="0"/>
    </linearGradient>
    <radialGradient id="glow" cx="0" cy="0" r="1" gradientUnits="userSpaceOnUse" gradientTransform="translate(960 120) rotate(90) scale(240)">
      <stop stop-color="#7a5cff" stop-opacity="0.45"/>
      <stop offset="1" stop-color="#7a5cff" stop-opacity="0"/>
    </radialGradient>
    <linearGradient id="badge" x1="0" y1="0" x2="1" y2="1">
      <stop stop-color="#ff8a00"/>
      <stop offset="1" stop-color="#7a5cff"/>
    </linearGradient>
  </defs>
  <rect width="1440" height="960" fill="url(#bg-gradient)"/>
  <circle cx="240" cy="240" r="180" fill="url(#orb-warm)" opacity="0.18"/>
  <circle cx="1110" cy="160" r="220" fill="url(#glow)" opacity="0.68"/>
  <circle cx="1240" cy="720" r="260" fill="url(#orb-cool)" opacity="0.22"/>

  <g stroke="url(#route)" stroke-width="6" stroke-linecap="round" opacity="0.55">
    <path d="M120 640 C260 560 340 540 440 600 C520 648 580 640 640 600 C720 544 820 516 960 556" />
    <path d="M340 260 C400 200 480 194 560 240 C640 288 720 292 820 236 C920 180 1040 180 1180 240" stroke-width="5" opacity="0.6" />
  </g>

  <g fill="none" stroke="#ffb347" stroke-width="4" stroke-linecap="round" stroke-linejoin="round" opacity="0.5">
    <path d="M260 620 l28 90 l-42 0 z" />
    <circle cx="267" cy="614" r="18" />
    <path d="M980 280 a42 42 0 1 1 84 0 a42 42 0 0 1 -84 0 z" />
  </g>

  <g stroke="#7a5cff" stroke-width="3" stroke-linecap="round" stroke-linejoin="round" opacity="0.45">
    <path d="M1070 720 h60" />
    <path d="M1100 690 v60" />
    <path d="M460 300 h48" />
    <path d="M484 276 v48" />
  </g>

  <g transform="translate(960 640)" opacity="0.9">
    <rect x="-140" y="-100" width="280" height="180" rx="24" fill="rgba(11,18,32,0.65)" stroke="rgba(255,255,255,0.12)" stroke-width="2" />
    <circle cx="-80" cy="-12" r="46" fill="rgba(122,92,255,0.45)"/>
    <path d="M-92 -10 q12 -16 32 -8" stroke="#fff" stroke-width="6" stroke-linecap="round" opacity="0.7" />
    <path d="M-108 32 q20 -18 52 -10" stroke="#ff8a00" stroke-width="6" stroke-linecap="round" opacity="0.8" />
    <g fill="#fff" transform="translate(0,18)">
      <rect x="-16" y="-8" width="132" height="16" rx="8" opacity="0.6" />
      <rect x="-16" y="22" width="92" height="12" rx="6" opacity="0.35" />
      <rect x="-16" y="44" width="72" height="10" rx="5" opacity="0.25" />
    </g>
    <g transform="translate(60,-58)" fill="rgba(255,255,255,0.08)">
      <rect x="-22" y="0" width="44" height="44" rx="12" />
      <path d="M-4 10 l0 24" stroke="#ff8a00" stroke-width="4" stroke-linecap="round" />
      <path d="M4 10 l0 24" stroke="#ff3d81" stroke-width="4" stroke-linecap="round" />
    </g>
  </g>

  <g transform="translate(320,360)" opacity="0.5">
    <rect x="-110" y="-80" width="220" height="140" rx="28" fill="rgba(15,23,42,0.5)" stroke="rgba(255,255,255,0.08)" stroke-width="2" />
    <g transform="translate(-60,-20)">
      <rect width="120" height="18" rx="9" fill="rgba(255,255,255,0.12)" />
      <rect y="32" width="90" height="12" rx="6" fill="rgba(255,255,255,0.08)" />
      <rect y="56" width="72" height="10" rx="5" fill="rgba(255,255,255,0.06)" />
    </g>
    <g transform="translate(70,-10)" fill="url(#badge)">
      <circle r="30" opacity="0.8" />
      <path d="M-12 0 l12 -18 l12 18 l-12 6z" fill="#fff" opacity="0.85" />
    </g>
  </g>
</svg>
